<svg width="21" height="21" viewBox="0 0 21 21" fill="none" xmlns="http://www.w3.org/2000/svg">
<path d="M8.46769 15.2442C8.46769 11.7905 11.056 8.94407 14.3947 8.52724V8.46769C14.613 8.1501 15.2403 7.62211 15.2403 6.77257C15.2403 5.92302 14.3947 5.07744 14.3947 4.65664C14.3986 1.27035 12.6718 0 10.1628 0C7.76106 0 5.92699 1.27035 5.92699 4.65664C5.92699 5.08141 5.08141 5.92699 5.08141 6.77257C5.08141 7.61814 5.68483 8.17789 5.92699 8.46769C5.92699 8.46769 5.92699 9.31327 6.35176 10.5836C6.35176 11.0084 7.19734 11.4292 7.62211 11.854C7.62211 12.2787 7.62211 12.6996 7.19734 13.5491L2.5407 14.3986C0.845578 14.8195 0 17.7849 0 20.3256H10.7742C9.36488 19.0831 8.46769 17.2689 8.46769 15.2442ZM15.2442 10.1628C12.4375 10.1628 10.1628 12.4375 10.1628 15.2442C10.1628 18.0509 12.4375 20.3256 15.2442 20.3256C18.0509 20.3256 20.3256 18.0509 20.3256 15.2442C20.3256 12.4375 18.0509 10.1628 15.2442 10.1628ZM18.6305 16.0898H16.0898V18.6305H14.3947V16.0898H11.854V14.3947H14.3947V11.854H16.0898V14.3947H18.6305V16.0898Z" fill="white"/>
</svg>
