<svg width="27" height="26" viewBox="0 0 27 26" fill="none" xmlns="http://www.w3.org/2000/svg">
<path d="M10.4119 9.86094C13.1349 9.86094 15.3424 7.65349 15.3424 4.93047C15.3424 2.20745 13.1349 0 10.4119 0C7.68889 0 5.48145 2.20745 5.48145 4.93047C5.48145 7.65349 7.68889 9.86094 10.4119 9.86094Z" fill="white"/>
<path d="M11.866 24.2578C11.5944 23.9892 11.4172 23.6398 11.3609 23.2621C11.3046 22.8843 11.3723 22.4984 11.5537 22.1623L11.9893 21.3406L11.0936 21.0694C10.7283 20.9551 10.4103 20.7247 10.1879 20.4133C9.9654 20.1019 9.85062 19.7263 9.86094 19.3438V17.6592C9.86025 17.2783 9.98211 16.9073 10.2085 16.6009C10.4349 16.2946 10.7539 16.0693 11.1182 15.9582L12.0139 15.687L11.5866 14.8652C11.4105 14.5337 11.3435 14.1551 11.3951 13.7833C11.4467 13.4115 11.6144 13.0654 11.8742 12.7945C11.242 12.7116 10.6053 12.6677 9.96777 12.663C8.08459 12.6186 6.21484 12.9904 4.49186 13.7518C2.76888 14.5131 1.23513 15.6453 0 17.0675V23.436C0 23.654 0.0865764 23.863 0.240684 24.0171C0.394791 24.1712 0.603805 24.2578 0.821745 24.2578H11.866Z" fill="white"/>
<path d="M26.0496 17.3881L24.4061 16.895C24.2922 16.4892 24.1323 16.0977 23.9295 15.7282L24.7512 14.1997C24.783 14.143 24.7946 14.0772 24.7841 14.013C24.7737 13.9488 24.7418 13.8901 24.6937 13.8464L23.5022 12.6466C23.4563 12.6019 23.3978 12.5725 23.3346 12.5622C23.2713 12.5519 23.2065 12.5613 23.1488 12.5891L21.6286 13.4108C21.2544 13.2076 20.8607 13.0424 20.4535 12.9178L19.9522 11.2743C19.9302 11.2137 19.8899 11.1614 19.8369 11.1246C19.7839 11.0878 19.7209 11.0684 19.6564 11.0689H17.9472C17.8831 11.0706 17.8211 11.0921 17.7697 11.1303C17.7182 11.1686 17.6798 11.2217 17.6596 11.2825L17.1665 12.926C16.7514 13.0468 16.3516 13.215 15.975 13.4273L14.4876 12.6055C14.4298 12.5748 14.3638 12.563 14.2989 12.5719C14.234 12.5807 14.1735 12.6097 14.1261 12.6548L12.9181 13.8381C12.8705 13.884 12.8392 13.9441 12.8288 14.0093C12.8184 14.0745 12.8296 14.1414 12.8606 14.1997L13.6823 15.6953C13.4622 16.0664 13.2831 16.4605 13.1482 16.8704L11.5047 17.3716C11.4425 17.3896 11.388 17.4275 11.3494 17.4794C11.3108 17.5314 11.2903 17.5945 11.291 17.6593V19.3438C11.2903 19.4085 11.3108 19.4717 11.3494 19.5237C11.388 19.5756 11.4425 19.6135 11.5047 19.6314L13.1482 20.1327C13.2714 20.5352 13.4366 20.9235 13.6412 21.2914L12.8195 22.8527C12.7885 22.911 12.7773 22.9779 12.7877 23.0431C12.7981 23.1083 12.8294 23.1684 12.877 23.2142L14.1014 24.4058C14.1489 24.4509 14.2094 24.4799 14.2742 24.4887C14.3391 24.4976 14.4051 24.4858 14.463 24.4551L15.9996 23.6333C16.3653 23.83 16.751 23.987 17.1501 24.1017L17.6431 25.7863C17.6638 25.8484 17.7035 25.9025 17.7566 25.9408C17.8097 25.9792 17.8735 25.9999 17.939 26H19.6235C19.6876 25.9982 19.7496 25.9767 19.801 25.9385C19.8525 25.9003 19.8909 25.8471 19.9111 25.7863L20.4042 24.1017C20.7985 23.9885 21.1789 23.8314 21.5382 23.6333L23.0913 24.4551C23.1491 24.4858 23.2151 24.4976 23.28 24.4887C23.3449 24.4799 23.4054 24.4509 23.4529 24.4058L24.6526 23.2142C24.6977 23.1668 24.7267 23.1063 24.7356 23.0414C24.7444 22.9765 24.7327 22.9105 24.7019 22.8527L23.8802 21.3078C24.0767 20.9478 24.2338 20.5676 24.3486 20.1738L25.9921 19.6725C26.0538 19.6527 26.1081 19.6145 26.1477 19.5632C26.1873 19.5118 26.2104 19.4497 26.2139 19.3849V17.6839C26.2159 17.6243 26.2017 17.5653 26.1727 17.5132C26.1438 17.4611 26.1012 17.4178 26.0496 17.3881ZM18.7936 21.2667C18.2504 21.2683 17.7189 21.1088 17.2665 20.8082C16.8141 20.5076 16.461 20.0795 16.252 19.5781C16.043 19.0767 15.9875 18.5246 16.0925 17.9917C16.1974 17.4587 16.4582 16.9689 16.8417 16.5843C17.2252 16.1996 17.7142 15.9374 18.2469 15.8308C18.7795 15.7242 19.3318 15.7781 19.8338 15.9856C20.3358 16.1931 20.7649 16.5449 21.0668 16.9964C21.3688 17.4479 21.53 17.9789 21.53 18.5221C21.53 19.2486 21.2419 19.9454 20.729 20.4599C20.2161 20.9744 19.5201 21.2645 18.7936 21.2667Z" fill="white"/>
</svg>
