<svg width="20" height="20" viewBox="0 0 20 20" fill="none" xmlns="http://www.w3.org/2000/svg">
<path d="M10.7164 0.0263674C9.28583 -0.0777674 7.84964 0.127334 6.50543 0.627728C5.16122 1.12812 3.94052 1.91208 2.9263 2.9263C1.91208 3.94052 1.12812 5.16122 0.627728 6.50543C0.127334 7.84964 -0.0777674 9.28583 0.0263674 10.7164C0.386367 16.0064 5.00637 19.9964 10.3064 19.9964H13.9964C14.5464 19.9964 14.9964 19.5464 14.9964 18.9964C14.9964 18.4464 14.5464 17.9964 13.9964 17.9964H10.3264C6.59637 17.9964 3.17637 15.5764 2.24637 11.9664C0.756367 6.16637 6.15637 0.756368 11.9564 2.25637C15.5764 3.17637 17.9964 6.59637 17.9964 10.3264V11.4264C17.9964 12.2164 17.2864 12.9964 16.4964 12.9964C15.7064 12.9964 14.9964 12.2164 14.9964 11.4264V10.1764C14.9964 7.66637 13.2164 5.40637 10.7364 5.05637C9.94732 4.93904 9.14167 5.0119 8.38648 5.26888C7.63129 5.52587 6.94841 5.95954 6.39471 6.53379C5.841 7.10804 5.43249 7.80625 5.20317 8.5703C4.97386 9.33435 4.93039 10.1421 5.07637 10.9264C5.25175 11.8713 5.69599 12.7457 6.35581 13.4445C7.01563 14.1433 7.86302 14.637 8.79637 14.8664C10.6364 15.2964 12.3864 14.7064 13.5364 13.5364C14.4264 14.7564 16.2064 15.3964 17.8364 14.7464C19.1764 14.2164 19.9964 12.8464 19.9964 11.4064V10.3164C19.9964 5.00637 16.0064 0.386367 10.7164 0.0263674ZM9.99637 12.9964C8.33637 12.9964 6.99637 11.6564 6.99637 9.99637C6.99637 8.33637 8.33637 6.99637 9.99637 6.99637C11.6564 6.99637 12.9964 8.33637 12.9964 9.99637C12.9964 11.6564 11.6564 12.9964 9.99637 12.9964Z" fill="#A986A7"/>
</svg>
