<svg width="32" height="32" viewBox="0 0 32 32" fill="none" xmlns="http://www.w3.org/2000/svg">
<path d="M7.02571 13C7.02406 11.8141 7.25715 10.6395 7.71157 9.54398C8.16598 8.4485 8.83272 7.45379 9.67336 6.61719C10.514 5.78059 11.5119 5.11864 12.6096 4.66951C13.7072 4.22037 14.8829 3.99293 16.0689 4.0003C21.0176 4.03709 24.9759 8.15046 24.9759 13.113V14C24.9759 18.477 25.9126 21.0749 26.7376 22.4948C26.8264 22.6465 26.8737 22.819 26.8747 22.9948C26.8756 23.1707 26.8302 23.3436 26.7429 23.4963C26.6557 23.6489 26.5297 23.7759 26.3778 23.8643C26.2258 23.9528 26.0532 23.9996 25.8774 24H6.12329C5.94744 23.9996 5.77482 23.9528 5.62284 23.8643C5.47087 23.7758 5.34491 23.6489 5.25767 23.4962C5.17044 23.3435 5.12502 23.1705 5.12599 22.9946C5.12696 22.8188 5.17429 22.6463 5.26321 22.4946C6.08862 21.0746 7.02571 18.4768 7.02571 14L7.02571 13Z" stroke="#9E9797" stroke-width="2" stroke-linecap="round" stroke-linejoin="round"/>
<path d="M12 24V25C12 26.0609 12.4214 27.0783 13.1716 27.8284C13.9217 28.5786 14.9391 29 16 29C17.0609 29 18.0783 28.5786 18.8284 27.8284C19.5786 27.0783 20 26.0609 20 25V24" stroke="#9E9797" stroke-width="2" stroke-linecap="round" stroke-linejoin="round"/>
</svg>
