<svg width="36" height="37" viewBox="0 0 36 37" fill="none" xmlns="http://www.w3.org/2000/svg">
<path d="M20.9035 29.4844V22.9034C20.9035 22.6125 20.7879 22.3335 20.5822 22.1278C20.3765 21.9221 20.0976 21.8066 19.8067 21.8066H15.4194C15.1285 21.8066 14.8495 21.9221 14.6438 22.1278C14.4381 22.3335 14.3226 22.6125 14.3226 22.9034V29.4844C14.3226 29.7753 14.207 30.0543 14.0014 30.26C13.7957 30.4657 13.5168 30.5812 13.2259 30.5813L6.64578 30.5821C6.50174 30.5821 6.35909 30.5538 6.22601 30.4987C6.09292 30.4436 5.97199 30.3628 5.87013 30.2609C5.76826 30.1591 5.68746 30.0382 5.63233 29.9051C5.5772 29.772 5.54883 29.6294 5.54883 29.4853V16.8088C5.54883 16.656 5.58076 16.5049 5.64257 16.3651C5.70438 16.2254 5.79472 16.1001 5.90778 15.9973L16.8752 6.02517C17.0771 5.8416 17.3402 5.73988 17.613 5.73987C17.8859 5.73986 18.149 5.84156 18.3509 6.02512L29.3198 15.9973C29.4329 16.1001 29.5232 16.2254 29.5851 16.3651C29.6469 16.5049 29.6788 16.656 29.6788 16.8088V29.4853C29.6788 29.6294 29.6504 29.772 29.5953 29.9051C29.5402 30.0382 29.4594 30.1591 29.3575 30.2609C29.2557 30.3628 29.1347 30.4436 29.0016 30.4987C28.8686 30.5538 28.7259 30.5822 28.5819 30.5821L22.0002 30.5813C21.7093 30.5812 21.4303 30.4657 21.2247 30.26C21.019 30.0543 20.9035 29.7753 20.9035 29.4844V29.4844Z" stroke="white" stroke-width="2.19364" stroke-linecap="round" stroke-linejoin="round"/>
</svg>
