<svg width="19" height="20" viewBox="0 0 19 20" fill="none" xmlns="http://www.w3.org/2000/svg">
<path d="M4.21484 5.1239H16.2892C16.5339 5.12391 16.7758 5.17908 16.9995 5.28584C17.2231 5.39261 17.4234 5.54861 17.5876 5.74378C17.7518 5.93896 17.8761 6.16897 17.9526 6.41901C18.0291 6.66904 18.056 6.93355 18.0317 7.19547L17.5063 12.8478C17.4631 13.3127 17.2609 13.7437 16.9389 14.0572C16.6169 14.3708 16.1981 14.5444 15.7639 14.5444H7.40199C6.99701 14.5446 6.60448 14.3937 6.29126 14.1175C5.97803 13.8413 5.76346 13.4568 5.68408 13.0296L4.21484 5.1239Z" stroke="#9E9797" stroke-width="1.75118" stroke-linejoin="round"/>
<path d="M13.8461 18.3122H15.5973M4.21466 5.12362L3.50543 2.06859C3.458 1.86488 3.34866 1.68406 3.19478 1.55486C3.0409 1.42565 2.8513 1.35547 2.65611 1.35547H1.58789L4.21466 5.12362ZM6.84143 18.3122H8.59261H6.84143Z" stroke="#9E9797" stroke-width="1.75118" stroke-linecap="round" stroke-linejoin="round"/>
</svg>
