<svg width="29" height="21" viewBox="0 0 29 21" fill="none" xmlns="http://www.w3.org/2000/svg">
<path d="M0 7.30083C0 3.26761 3.26834 0 7.30083 0H12.9994C17.0326 0 20.3002 3.26834 20.3002 7.30083C20.3002 11.3319 17.0319 14.6009 12.9994 14.6009H8.70009V18.1252C8.70009 18.1252 0 16.3634 0 7.30083Z" fill="white"/>
<path d="M14.8457 15.8537C15.9323 16.8995 17.3824 17.4828 18.8905 17.4807H21.0249V20.3002C21.0249 20.3002 29 18.8908 29 11.6407C29 10.0918 28.3848 8.60631 27.2896 7.511C26.1944 6.41568 24.709 5.80024 23.1601 5.80005H21.5578C21.6833 6.27565 21.75 6.77518 21.75 7.29066C21.75 11.4914 18.7919 15.0018 14.8457 15.8537Z" fill="white"/>
</svg>
