<svg width="23" height="23" viewBox="0 0 23 23" fill="none" xmlns="http://www.w3.org/2000/svg">
<path d="M23 19.0002C23 20.0611 22.5786 21.0785 21.8284 21.8287C21.0783 22.5788 20.0609 23.0002 19 23.0002H17V21.0002H19C19.5304 21.0002 20.0391 20.7895 20.4142 20.4145C20.7893 20.0394 21 19.5307 21 19.0002C21 18.4698 20.7893 17.9611 20.4142 17.586C20.0391 17.211 19.5304 17.0002 19 17.0002H17V15.0002H19C20.0609 15.0002 21.0783 15.4217 21.8284 16.1718C22.5786 16.922 23 17.9394 23 19.0002ZM9 19.0002C9 17.9394 9.42143 16.922 10.1716 16.1718C10.9217 15.4217 11.9391 15.0002 13 15.0002H15V17.0002H13C12.4696 17.0002 11.9609 17.211 11.5858 17.586C11.2107 17.9611 11 18.4698 11 19.0002C11 19.5307 11.2107 20.0394 11.5858 20.4145C11.9609 20.7895 12.4696 21.0002 13 21.0002H15V23.0002H13C11.9391 23.0002 10.9217 22.5788 10.1716 21.8287C9.42143 21.0785 9 20.0611 9 19.0002Z" fill="#A986A7"/>
<path d="M14 18.0002H18V20.0002H14V18.0002ZM9 5.00024C8.40666 5.00024 7.82664 5.17619 7.33329 5.50584C6.83994 5.83548 6.45542 6.30402 6.22836 6.85219C6.0013 7.40037 5.94189 8.00357 6.05764 8.58552C6.1734 9.16746 6.45912 9.70201 6.87868 10.1216C7.29824 10.5411 7.83279 10.8268 8.41473 10.9426C8.99667 11.0584 9.59987 10.9989 10.1481 10.7719C10.6962 10.5448 11.1648 10.1603 11.4944 9.66695C11.8241 9.17361 12 8.59359 12 8.00024C11.9976 7.20532 11.6808 6.44364 11.1187 5.88155C10.5566 5.31945 9.79492 5.00262 9 5.00024ZM9 9.00024C8.80222 9.00024 8.60888 8.9416 8.44443 8.83171C8.27998 8.72183 8.15181 8.56565 8.07612 8.38293C8.00043 8.2002 7.98063 7.99913 8.01921 7.80515C8.0578 7.61117 8.15304 7.43299 8.29289 7.29314C8.43275 7.15329 8.61093 7.05804 8.80491 7.01946C8.99889 6.98087 9.19996 7.00068 9.38268 7.07636C9.56541 7.15205 9.72159 7.28022 9.83147 7.44467C9.94135 7.60912 10 7.80246 10 8.00024C9.99921 8.26522 9.8936 8.51911 9.70623 8.70648C9.51887 8.89384 9.26497 8.99945 9 9.00024ZM5.31 15.0002C6.41113 14.2893 7.68949 13.9013 9 13.8802C9.2605 13.8836 9.52046 13.905 9.778 13.9442C10.7395 13.3276 11.8578 12.9999 13 13.0002H13.254C11.9437 12.2991 10.4858 11.9187 9 11.8902C6.97 11.8902 3 12.9602 3 15.4702V17.0002H7.349C7.61041 16.2623 8.01403 15.5828 8.537 15.0002H5.31Z" fill="#A986A7"/>
<path d="M16 2.0002H11.82C11.6152 1.41564 11.2339 0.909159 10.7287 0.550821C10.2235 0.192483 9.61939 0 9 0C8.38061 0 7.77654 0.192483 7.27133 0.550821C6.76612 0.909159 6.38476 1.41564 6.18 2.0002H2C1.47005 2.00179 0.962265 2.21301 0.587535 2.58774C0.212805 2.96247 0.00158273 3.47026 0 4.0002L0 18.0002C0.00158273 18.5301 0.212805 19.0379 0.587535 19.4127C0.962265 19.7874 1.47005 19.9986 2 20.0002H7.141C6.95242 19.3469 6.95242 18.6535 7.141 18.0002H2V4.0002H16V13.0002H18V4.0002C17.9984 3.47026 17.7872 2.96247 17.4125 2.58774C17.0377 2.21301 16.5299 2.00179 16 2.0002ZM9 3.2502C8.80149 3.24889 8.61149 3.16945 8.47112 3.02908C8.33075 2.88872 8.25131 2.69871 8.25 2.5002C8.25 2.30129 8.32902 2.11052 8.46967 1.96987C8.61032 1.82922 8.80109 1.7502 9 1.7502C9.19891 1.7502 9.38968 1.82922 9.53033 1.96987C9.67098 2.11052 9.75 2.30129 9.75 2.5002C9.74869 2.69871 9.66925 2.88872 9.52888 3.02908C9.38851 3.16945 9.19851 3.24889 9 3.2502Z" fill="#A986A7"/>
</svg>
