<svg width="40" height="40" viewBox="0 0 40 40" fill="none" xmlns="http://www.w3.org/2000/svg">
<circle cx="19.8015" cy="19.8015" r="19.8015" fill="#A986A7"/>
<path d="M13.3929 12.25C13.3929 13.4915 12.3844 14.5 11.1429 14.5C9.90013 14.5 8.89286 13.4915 8.89286 12.25C8.89286 11.0073 9.90013 10 11.1429 10C12.3844 10 13.3929 11.0073 13.3929 12.25ZM14.3732 16.6013C13.1799 17.6621 12.4286 19.2089 12.4286 20.9286C12.4286 22.3067 12.8746 23.5723 13.7143 24.5647V25.4286C13.7143 26.1397 13.1397 26.7143 12.4286 26.7143H9.85714C9.14719 26.7143 8.57143 26.1397 8.57143 25.4286V24.3518C7.05107 23.6286 6 22.0817 6 20.2857C6 17.7987 8.01455 15.7857 10.5 15.7857H11.7857C12.7138 15.7857 13.642 16.0871 14.3732 16.6013ZM8.57143 18.5862C8.17125 19.0362 7.92857 19.6348 7.92857 20.2857C7.92857 20.9366 8.17125 21.5353 8.57143 21.9853V18.5862ZM24 25.4286V24.5647C24.8036 23.5723 25.2857 22.3067 25.2857 20.9286C25.2857 19.2089 24.5344 17.6621 23.3411 16.6013C24.0723 16.0871 24.9643 15.7857 25.9286 15.7857H27.2143C29.7013 15.7857 31.7143 17.7987 31.7143 20.2857C31.7143 22.0817 30.6616 23.6286 29.1429 24.3518V25.4286C29.1429 26.1397 28.5683 26.7143 27.8571 26.7143H25.2857C24.5746 26.7143 24 26.1397 24 25.4286ZM29.1429 21.9853C29.5085 21.5353 29.7857 20.9366 29.7857 20.2857C29.7857 19.6348 29.5085 19.0362 29.1429 18.5862V21.9853ZM28.8214 12.25C28.8214 13.4915 27.8129 14.5 26.5714 14.5C25.3299 14.5 24.3214 13.4915 24.3214 12.25C24.3214 11.0073 25.3299 10 26.5714 10C27.8129 10 28.8214 11.0073 28.8214 12.25ZM16.2857 12.5714C16.2857 11.1511 17.4388 10 18.8571 10C20.2754 10 21.4286 11.1511 21.4286 12.5714C21.4286 13.9897 20.2754 15.1429 18.8571 15.1429C17.4388 15.1429 16.2857 13.9897 16.2857 12.5714ZM24 20.9286C24 22.7246 22.9473 24.2714 21.4286 24.9946V26.7143C21.4286 27.4254 20.854 28 20.1429 28H17.5714C16.8603 28 16.2857 27.4254 16.2857 26.7143V24.9946C14.767 24.2714 13.7143 22.7246 13.7143 20.9286C13.7143 18.4415 15.7272 16.4286 18.2143 16.4286H19.5C21.9871 16.4286 24 18.4415 24 20.9286ZM16.2857 22.6281V19.229C15.8839 19.679 15.6429 20.2777 15.6429 20.9286C15.6429 21.5795 15.8839 22.1781 16.2857 22.6281ZM21.4286 19.229V22.6281C21.7942 22.1741 22.0714 21.5795 22.0714 20.9286C22.0714 20.2777 21.7942 19.679 21.4286 19.229Z" fill="white"/>
</svg>
