<svg width="25" height="25" viewBox="0 0 25 25" fill="none" xmlns="http://www.w3.org/2000/svg">
<path d="M8.36923 8.10828H6.3584V15.1462C6.3584 16.2521 7.26327 17.157 8.36923 17.157H17.418V15.1462H8.36923V8.10828Z" fill="#9E9797"/>
<path d="M20.4344 3.08118H12.3911C11.2851 3.08118 10.3802 3.98605 10.3802 5.09201V11.1245C10.3802 12.2305 11.2851 13.1353 12.3911 13.1353H20.4344C21.5404 13.1353 22.4452 12.2305 22.4452 11.1245V5.09201C22.4452 3.98605 21.5404 3.08118 20.4344 3.08118ZM20.4344 11.1245H12.3911V7.10284H20.4344V11.1245ZM4.34775 12.1299H2.33691V19.1678C2.33691 20.2738 3.24179 21.1787 4.34775 21.1787H13.3965V19.1678H4.34775V12.1299Z" fill="#9E9797"/>
</svg>
