<svg width="21" height="23" viewBox="0 0 21 23" fill="none" xmlns="http://www.w3.org/2000/svg">
<path d="M15.8919 6.0545C15.8919 9.11265 13.4134 11.5912 10.3552 11.5912C7.29705 11.5912 4.81852 9.11265 4.81852 6.0545C4.81852 2.99678 7.29705 0.517822 10.3552 0.517822C13.4134 0.517822 15.8919 2.99678 15.8919 6.0545ZM9.7107 16.0551L8.27895 13.6674H12.4315L10.9997 16.0551L12.4401 21.4145L14.1487 14.4417C17.488 14.9608 20.0444 17.8502 20.0444 21.3366C20.0444 22.0676 19.4475 22.6645 18.7164 22.6645H1.99482C1.26078 22.6645 0.666016 22.0676 0.666016 21.3366C0.666016 17.8502 3.22197 14.9608 6.56171 14.4417L8.2703 21.4145L9.7107 16.0551Z" fill="#A986A7"/>
</svg>
