<svg width="15" height="23" viewBox="0 0 15 23" fill="none" xmlns="http://www.w3.org/2000/svg">
<path d="M13.2066 0.731567H2.34724C1.9358 0.731567 1.54121 0.895012 1.25028 1.18594C0.959343 1.47688 0.795898 1.87147 0.795898 2.28291V20.899C0.795898 21.3104 0.959343 21.705 1.25028 21.9959C1.54121 22.2869 1.9358 22.4503 2.34724 22.4503H13.2066C13.6181 22.4503 14.0126 22.2869 14.3036 21.9959C14.5945 21.705 14.758 21.3104 14.758 20.899V2.28291C14.758 1.87147 14.5945 1.47688 14.3036 1.18594C14.0126 0.895012 13.6181 0.731567 13.2066 0.731567ZM8.5526 20.899H7.00126V19.3476H8.5526V20.899ZM2.34724 17.7963V2.28291H13.2066V17.7963H2.34724Z" fill="#A986A7"/>
</svg>
