<svg width="23" height="23" viewBox="0 0 23 23" fill="none" xmlns="http://www.w3.org/2000/svg">
<path d="M18.8934 9.03571C18.8934 7.07501 18.1145 5.1946 16.7281 3.80817C15.3417 2.42175 13.4613 1.64286 11.5006 1.64286C9.53985 1.64286 7.65945 2.42175 6.27302 3.80817C4.88659 5.1946 4.1077 7.07501 4.1077 9.03571C4.1077 12.0684 6.5342 16.0211 11.5006 20.7559C16.4669 16.0211 18.8934 12.0684 18.8934 9.03571ZM11.5006 23C5.4762 17.5244 2.46484 12.8685 2.46484 9.03571C2.46484 6.63929 3.41682 4.34102 5.11134 2.6465C6.80587 0.951975 9.10414 0 11.5006 0C13.897 0 16.1952 0.951975 17.8898 2.6465C19.5843 4.34102 20.5363 6.63929 20.5363 9.03571C20.5363 12.8685 17.5249 17.5244 11.5006 23Z" fill="#A986A7"/>
<path d="M11.5 9.85704C11.9357 9.85704 12.3536 9.68395 12.6617 9.37586C12.9698 9.06776 13.1429 8.64989 13.1429 8.21418C13.1429 7.77847 12.9698 7.3606 12.6617 7.05251C12.3536 6.74441 11.9357 6.57132 11.5 6.57132C11.0643 6.57132 10.6464 6.74441 10.3383 7.05251C10.0302 7.3606 9.85714 7.77847 9.85714 8.21418C9.85714 8.64989 10.0302 9.06776 10.3383 9.37586C10.6464 9.68395 11.0643 9.85704 11.5 9.85704ZM11.5 11.4999C10.6286 11.4999 9.79284 11.1537 9.17665 10.5375C8.56046 9.92134 8.21429 9.08561 8.21429 8.21418C8.21429 7.34276 8.56046 6.50702 9.17665 5.89083C9.79284 5.27464 10.6286 4.92847 11.5 4.92847C12.3714 4.92847 13.2072 5.27464 13.8234 5.89083C14.4395 6.50702 14.7857 7.34276 14.7857 8.21418C14.7857 9.08561 14.4395 9.92134 13.8234 10.5375C13.2072 11.1537 12.3714 11.4999 11.5 11.4999ZM20.3714 16.4285L23 22.9999H15.6071V21.357H7.39286V22.9999H0L2.62857 16.4285H20.3714ZM18.6021 16.4285H4.39793L2.4265 21.357H20.5735L18.6021 16.4285Z" fill="#A986A7"/>
</svg>
