<svg width="19" height="19" viewBox="0 0 19 19" fill="none" xmlns="http://www.w3.org/2000/svg">
<path d="M14.8438 16.625C15.8275 16.625 16.625 15.8275 16.625 14.8438C16.625 13.86 15.8275 13.0625 14.8438 13.0625C13.86 13.0625 13.0625 13.86 13.0625 14.8438C13.0625 15.8275 13.86 16.625 14.8438 16.625Z" stroke="white" stroke-width="1.1875" stroke-linecap="round" stroke-linejoin="round"/>
<path d="M5.34375 4.15625H12.4688C13.0986 4.15625 13.7027 4.40647 14.1481 4.85187C14.5935 5.29727 14.8438 5.90136 14.8438 6.53125C14.8438 7.16114 14.5935 7.76523 14.1481 8.21063C13.7027 8.65603 13.0986 8.90625 12.4688 8.90625H5.34375C4.55639 8.90625 3.80128 9.21903 3.24453 9.77578C2.68778 10.3325 2.375 11.0876 2.375 11.875C2.375 12.6624 2.68778 13.4175 3.24453 13.9742C3.80128 14.531 4.55639 14.8438 5.34375 14.8438H13.0625" stroke="white" stroke-width="1.1875" stroke-linecap="round" stroke-linejoin="round"/>
</svg>
