<svg width="23" height="23" viewBox="0 0 23 23" fill="none" xmlns="http://www.w3.org/2000/svg">
<path d="M13.1798 1.93371C13.0394 1.81897 12.8777 1.73322 12.7039 1.68142C12.5302 1.62962 12.3479 1.61279 12.1676 1.63192C11.9873 1.65104 11.8126 1.70574 11.6536 1.79284C11.4945 1.87995 11.3544 1.99772 11.2412 2.13936L7.27071 7.11343H9.02562L12.312 2.99488L13.3676 3.85725L10.7216 7.11343H12.4875L14.4302 4.72236L16.7856 6.64591L16.377 7.11343H16.7883C17.1972 7.113 17.6038 7.17353 17.9948 7.29303C18.1442 7.01284 18.1917 6.68949 18.1292 6.37818C18.0667 6.06688 17.898 5.78692 17.6521 5.58611L13.1798 1.93371ZM4.44915 7.79894C4.44915 7.61713 4.52137 7.44277 4.64993 7.31421C4.77849 7.18565 4.95285 7.11343 5.13466 7.11343H5.89969L6.98965 5.7424H5.13466C4.58923 5.7424 4.06614 5.95907 3.68047 6.34475C3.29479 6.73042 3.07813 7.25351 3.07812 7.79894V16.0251C3.07812 16.9341 3.43924 17.8059 4.08203 18.4487C4.72482 19.0915 5.59664 19.4526 6.50568 19.4526H16.7883C17.5156 19.4526 18.213 19.1637 18.7273 18.6495C19.2415 18.1353 19.5304 17.4378 19.5304 16.7106V11.2265C19.5304 10.4993 19.2415 9.80181 18.7273 9.28758C18.213 8.77334 17.5156 8.48445 16.7883 8.48445H5.13466C4.95285 8.48445 4.77849 8.41223 4.64993 8.28367C4.52137 8.15511 4.44915 7.98075 4.44915 7.79894ZM14.7318 13.9685H16.1028C16.2846 13.9685 16.459 14.0408 16.5876 14.1693C16.7161 14.2979 16.7883 14.4722 16.7883 14.6541C16.7883 14.8359 16.7161 15.0102 16.5876 15.1388C16.459 15.2673 16.2846 15.3396 16.1028 15.3396H14.7318C14.55 15.3396 14.3756 15.2673 14.2471 15.1388C14.1185 15.0102 14.0463 14.8359 14.0463 14.6541C14.0463 14.4722 14.1185 14.2979 14.2471 14.1693C14.3756 14.0408 14.55 13.9685 14.7318 13.9685Z" fill="#9E9797"/>
</svg>
